<svg xmlns="http://www.w3.org/2000/svg" viewBox="0 0 1036.92 696.72"><defs><style>.cls-1{fill:#231f20;}.cls-2{fill:none;stroke:#231f20;stroke-miterlimit:10;stroke-width:43.92px;}</style></defs><title>snakeye</title><g id="Layer_3" data-name="Layer 3"><path class="cls-1" d="M502.2,106.36a47.85,47.85,0,0,0-35.12-14.53,22.15,22.15,0,0,0-15.66,37.8,21.35,21.35,0,0,0,15.66,6.48q27.51,0,47,19.47t19.46,47q0,27.49-19.46,47t-47,19.47q-38.93,0-66.43-27.51L432,210.16a47.83,47.83,0,0,0,35.12,14.53,22.15,22.15,0,0,0,0-44.29q-27.51,0-47-19.46t-19.46-47q0-27.51,19.46-47t47-19.46q38.93,0,66.43,27.51Z" transform="translate(-112.52 -47.54)"/><path class="cls-1" d="M586.65,269H542.37V47.54h46l42.56,106.39V47.54h44.29V269h-46l-42.56-106.4Z" transform="translate(-112.52 -47.54)"/><path class="cls-1" d="M684.08,269,728.37,47.54h44.29L817,269H771.79l-4.5-22.15H733.73L729.23,269Zm58.48-66.43h15.91l-8-40Z" transform="translate(-112.52 -47.54)"/><path class="cls-1" d="M958.66,269H906.94l-36.85-61.42V269H825.8V47.54h44.29V109l36.85-61.41h51.72L892.23,158.26Z" transform="translate(-112.52 -47.54)"/><path class="cls-1" d="M1007.38,224.69H1096V269H963.09V47.54H1096V91.83h-88.57v44.28h66.43V180.4h-66.43Z" transform="translate(-112.52 -47.54)"/><path class="cls-1" d="M214.07,581.64A47.83,47.83,0,0,0,179,567.11a22.15,22.15,0,0,0,0,44.29q27.51,0,47,19.46t19.46,47q0,27.51-19.46,47t-47,19.46q-38.92,0-66.43-27.51l31.31-31.31A47.85,47.85,0,0,0,179,700a22.14,22.14,0,1,0,0-44.28q-27.49,0-47-19.47t-19.46-47q0-27.5,19.46-47t47-19.47q38.93,0,66.43,27.51Z" transform="translate(-112.52 -47.54)"/><path class="cls-1" d="M342.81,744.26H298.53V567.11H254.24V522.82H387.1v44.29H342.81Z" transform="translate(-112.52 -47.54)"/><path class="cls-1" d="M462.39,744.26q-27.51,0-47-19.46t-19.46-47v-155h44.29v155a21.37,21.37,0,0,0,6.48,15.66A21,21,0,0,0,462,700a21.75,21.75,0,0,0,16-6.48,21.34,21.34,0,0,0,6.49-15.66v-155h44.29v155q0,27.51-19.46,47T462.39,744.26Z" transform="translate(-112.52 -47.54)"/><path class="cls-1" d="M604.11,744.26H537.67V522.82h66.44q27.5,0,47,19.47t19.47,47v88.58q0,27.51-19.47,47T604.11,744.26Zm22.14-66.43V589.25a22.16,22.16,0,0,0-22.14-22.14H582V700h21.8a21.75,21.75,0,0,0,16-6.48A21.34,21.34,0,0,0,626.25,677.83Z" transform="translate(-112.52 -47.54)"/><path class="cls-1" d="M768,700h44.28v44.29H679.39V700h44.29V567.11H679.39V522.82H812.25v44.29H768Z" transform="translate(-112.52 -47.54)"/><path class="cls-1" d="M883.11,744.26q-27.51,0-47-19.46t-19.46-47V589.25q0-27.5,19.46-47t47-19.47q27.51,0,47,19.47t19.46,47v88.58q0,27.51-19.46,47T883.11,744.26Zm22.15-66.43V589.25a22.15,22.15,0,0,0-44.29,0v88.58a21.34,21.34,0,0,0,6.49,15.66A20.93,20.93,0,0,0,882.77,700a21.76,21.76,0,0,0,16-6.48A21.38,21.38,0,0,0,905.26,677.83Z" transform="translate(-112.52 -47.54)"/><path class="cls-1" d="M1060,581.64a47.85,47.85,0,0,0-35.12-14.53,22.15,22.15,0,0,0,0,44.29q27.51,0,47,19.46t19.46,47q0,27.51-19.46,47t-47,19.46q-38.92,0-66.43-27.51l31.31-31.31A47.83,47.83,0,0,0,1024.83,700a22.14,22.14,0,1,0,0-44.28q-27.51,0-47-19.47t-19.46-47q0-27.5,19.46-47t47-19.47q38.93,0,66.43,27.51Z" transform="translate(-112.52 -47.54)"/><path class="cls-1" d="M724.41,463.88H813v44.28H680.13V286.72H813V331H724.41V375.3h66.43v44.29H724.41Z" transform="translate(-112.52 -47.54)"/><path class="cls-1" d="M910.42,508.16H866.13V419.59L821.84,286.72h46.71l19.73,59.17L908,286.72h46.71L910.42,419.59Z" transform="translate(-112.52 -47.54)"/><path class="cls-1" d="M1007.85,463.88h88.57v44.28H963.56V286.72h132.86V331h-88.57V375.3h66.43v44.29h-66.43Z" transform="translate(-112.52 -47.54)"/><path class="cls-1" d="M1146.89,612.46l-7.5-12.18a63.73,63.73,0,0,1-8.88-20.07l-5.5-22.1a21.5,21.5,0,0,0-34.84-7l-32,31.32a21.5,21.5,0,0,0,6.25,35l22.89,6.44a64.81,64.81,0,0,1,17.84,7.78l13.12,8.81C1136.27,649.55,1156.71,624,1146.89,612.46Zm-57.26-6.37a8.3,8.3,0,1,1,6.58-6.45A8.32,8.32,0,0,1,1089.63,606.09ZM1110.78,585a8.3,8.3,0,1,1,6.58-6.45A8.3,8.3,0,0,1,1110.78,585Z" transform="translate(-112.52 -47.54)"/><line class="cls-2" x1="820.58" y1="613.25" x2="866.22" y2="658.89"/></g><g id="Layer_4" data-name="Layer 4"><ellipse class="cls-1" cx="1109.24" cy="576.81" rx="2.57" ry="8.51" transform="translate(-195.5 905.75) rotate(-45)"/><ellipse class="cls-1" cx="1088.12" cy="597.93" rx="2.57" ry="8.51" transform="translate(-216.62 897) rotate(-45)"/></g><g id="Layer_6" data-name="Layer 6"><path class="cls-1" d="M1104.17,585.1c2.44.12,4.65-7.46,5.44-11.77.86-4.71,1.49-8.15-.69-10.58s-6.16-3.23-8.51-1.68c-5.06,3.32-.12,16.94.69,19.18C1102.8,584.93,1103.89,585.09,1104.17,585.1Z" transform="translate(-112.52 -47.54)"/><path class="cls-1" d="M1097.86,594.19c-.83,1.51-3,1.37-5.94,1.88-7,1.22-7.37,4.16-12.46,4.75-4.77.56-11.17-1.24-12.06-4.65-1-3.68,4.76-8.32,9.19-10.28,7-3.1,16.33-2,20,3C1096.71,589,1099,592.19,1097.86,594.19Z" transform="translate(-112.52 -47.54)"/></g></svg>